<svg width="34" height="34" viewBox="0 0 34 34" fill="none" xmlns="http://www.w3.org/2000/svg">
<g clip-path="url(#clip0_2218_15405)">
<path d="M17 0C7.62592 0 0 7.62592 0 17C0 26.3741 7.62592 34 17 34C26.3741 34 34 26.3741 34 17C34 7.62592 26.3741 0 17 0ZM17 32.5833C8.40792 32.5833 1.41667 25.5921 1.41667 17C1.41667 8.40792 8.40792 1.41667 17 1.41667C25.5921 1.41667 32.5833 8.40792 32.5833 17C32.5833 25.5921 25.5921 32.5833 17 32.5833ZM24.0833 17C24.0833 17.391 23.766 17.7083 23.375 17.7083H17.7083V23.375C17.7083 23.766 17.391 24.0833 17 24.0833C16.609 24.0833 16.2917 23.766 16.2917 23.375V17.7083H10.625C10.234 17.7083 9.91667 17.391 9.91667 17C9.91667 16.609 10.234 16.2917 10.625 16.2917H16.2917V10.625C16.2917 10.234 16.609 9.91667 17 9.91667C17.391 9.91667 17.7083 10.234 17.7083 10.625V16.2917H23.375C23.766 16.2917 24.0833 16.609 24.0833 17Z" fill="#707579"/>
</g>
<defs>
<clipPath id="clip0_2218_15405">
<rect width="34" height="34" fill="white"/>
</clipPath>
</defs>
</svg>
