<svg width="20" height="23" viewBox="0 0 20 23" fill="none" xmlns="http://www.w3.org/2000/svg">
<path fill-rule="evenodd" clip-rule="evenodd" d="M16.2869 4.44485C13.9453 2.13825 10.0979 2.13825 7.75628 4.44485L2.40399 9.71717C2.01475 10.1006 1.38839 10.0959 1.00496 9.70664C0.621543 9.3174 0.626257 8.69104 1.01549 8.30761L6.36779 3.03529C9.47957 -0.0299962 14.5636 -0.0299909 17.6754 3.0353C20.7369 6.05105 20.7369 10.9045 17.6754 13.9202L10.3277 21.1581C7.97335 23.4773 4.1298 23.4773 1.77542 21.1581C-0.544933 18.8724 -0.544933 15.1909 1.77542 12.9052L9.15631 5.63463C10.7404 4.07416 13.2971 4.00277 14.9701 5.46766C16.808 7.07694 16.8474 9.87865 15.0525 11.5362L8.89366 17.2238C8.49227 17.5945 7.86639 17.5696 7.49571 17.1682C7.12503 16.7669 7.14992 16.141 7.55131 15.7703L13.7102 10.0826C14.6401 9.22383 14.6215 7.79227 13.6667 6.95624C12.7711 6.17198 11.3886 6.21296 10.5448 7.04419L3.16392 14.3148C1.63034 15.8255 1.63033 18.2379 3.16392 19.7486C4.74809 21.3091 7.35506 21.3091 8.93923 19.7486L16.2869 12.5107C18.5616 10.27 18.5616 6.68558 16.2869 4.44485Z" fill="#007AFF"/>
</svg>
