<svg width="21" height="21" viewBox="0 0 21 21" fill="none" xmlns="http://www.w3.org/2000/svg">
<g clip-path="url(#clip0_2199_14405)">
<path d="M10.936 9.15989L10.9365 1.25613C10.9365 0.76548 10.5387 0.367733 10.0481 0.367753C9.55744 0.367753 9.15969 0.7655 9.15971 1.25613L9.1601 9.15989L1.25636 9.15948C0.765714 9.15948 0.367967 9.55722 0.367987 10.0479C0.368006 10.5385 0.765734 10.9362 1.25636 10.9362L9.1601 10.9358L9.15971 18.8396C9.15971 19.3302 9.55746 19.728 10.0481 19.728C10.5387 19.7279 10.9365 19.3302 10.9365 18.8396L10.936 10.9358L18.8398 10.9362C19.3304 10.9362 19.7282 10.5385 19.7282 10.0479C19.7282 9.55722 19.3304 9.15947 18.8398 9.1595L10.936 9.15989Z" fill="black"/>
</g>
<defs>
<clipPath id="clip0_2199_14405">
<rect width="14.2102" height="14.2102" fill="white" transform="translate(0 10.0479) rotate(-45)"/>
</clipPath>
</defs>
</svg>
